<svg xmlns="http://www.w3.org/2000/svg" xmlns:xlink="http://www.w3.org/1999/xlink" viewBox="0.5 0.5 48 48" fill="#fff">
    <use xlink:href="#B" x=".5" y=".5"/>
    <defs>
        <linearGradient id="A" x2="50%" x1="50%" y2="100%" y1="0%">
            <stop stop-color="#111d2e" offset="0%"/>
            <stop stop-color="#051839" offset="21.2%"/>
            <stop stop-color="#0a1b48" offset="40.7%"/>
            <stop stop-color="#132e62" offset="58.1%"/>
            <stop stop-color="#144b7e" offset="73.8%"/>
            <stop stop-color="#136497" offset="87.3%"/>
            <stop stop-color="#1387b8" offset="100%"/>
        </linearGradient>
    </defs>
    <symbol id="B">
        <g>
            <circle cx="24" cy="24" r="24"
                    fill="url(#A)"/>
            <path fill="white"
                  d="M22.5 34H14q-4.25 0-7.125-2.875T4 24q0-4.25 2.875-7.125T14 14h8.5v3H14q-3 0-5 2t-2 5q0 3 2 5t5 2h8.5Zm-6.25-8.5v-3h15.5v3ZM25.5 34v-3H34q3 0 5-2t2-5q0-3-2-5t-5-2h-8.5v-3H34q4.25 0 7.125 2.875T44 24q0 4.25-2.875 7.125T34 34Z"/>

            <!--            <path d="M30.31 23.985l.003.158-7.83 11.375c-1.268-.058-2.54.165-3.748.662a8.14 8.14 0 0 0-1.498.8L.042 29.893s-.398 6.546 1.26 11.424l12.156 5.016c.6 2.728 2.48 5.12 5.242 6.27a8.88 8.88 0 0 0 11.603-4.782 8.89 8.89 0 0 0 .684-3.656L42.18 36.16l.275.005c6.705 0 12.155-5.466 12.155-12.18s-5.44-12.16-12.155-12.174c-6.702 0-12.155 5.46-12.155 12.174zm-1.88 23.05c-1.454 3.5-5.466 5.147-8.953 3.694a6.84 6.84 0 0 1-3.524-3.362l3.957 1.64a5.04 5.04 0 0 0 6.591-2.719 5.05 5.05 0 0 0-2.715-6.601l-4.1-1.695c1.578-.6 3.372-.62 5.05.077 1.7.703 3 2.027 3.696 3.72s.692 3.56-.01 5.246M42.466 32.1a8.12 8.12 0 0 1-8.098-8.113 8.12 8.12 0 0 1 8.098-8.111 8.12 8.12 0 0 1 8.1 8.111 8.12 8.12 0 0 1-8.1 8.113m-6.068-8.126a6.09 6.09 0 0 1 6.08-6.095c3.355 0 6.084 2.73 6.084 6.095a6.09 6.09 0 0 1-6.084 6.093 6.09 6.09 0 0 1-6.081-6.093z"/>-->
        </g>
    </symbol>
</svg>
